<?xml version="1.0" standalone="no"?>
<!DOCTYPE svg PUBLIC "-//W3C//DTD SVG 20010904//EN"
 "http://www.w3.org/TR/2001/REC-SVG-20010904/DTD/svg10.dtd">
<svg version="1.0" xmlns="http://www.w3.org/2000/svg"
 width="225.000000pt" height="225.000000pt" viewBox="0 0 225.000000 225.000000"
 preserveAspectRatio="xMidYMid meet">
<metadata>
Created by potrace 1.14, written by Peter Selinger 2001-2017
</metadata>
<g transform="translate(0.000000,225.000000) scale(0.100000,-0.100000)"
fill="#000000" stroke="none">
<path d="M1066 2222 c-8 -15 -18 -46 -22 -67 -5 -22 -9 -43 -10 -47 -1 -5 -2
-14 -3 -22 0 -8 -16 -16 -37 -18 -34 -4 -38 -2 -51 31 -9 20 -29 55 -45 79
-27 40 -32 43 -61 37 -51 -11 -59 -25 -59 -103 0 -39 3 -76 7 -81 3 -6 -11
-17 -30 -26 l-37 -15 -49 55 c-59 64 -77 72 -120 50 -31 -16 -31 -18 -26 -69
3 -28 13 -68 23 -88 17 -37 17 -38 -6 -58 -13 -11 -25 -20 -27 -20 -2 0 -27
16 -56 35 -71 47 -108 54 -136 24 -30 -33 -26 -58 19 -128 l40 -62 -20 -29
-20 -28 -47 18 c-27 9 -67 20 -90 24 -39 6 -42 4 -62 -30 l-22 -36 26 -34 c14
-19 43 -48 65 -65 38 -31 39 -33 26 -63 -12 -31 -12 -31 -82 -28 -90 4 -119
-7 -128 -49 -8 -42 16 -69 90 -101 51 -22 54 -25 54 -60 0 -36 -1 -37 -48 -44
-26 -4 -64 -13 -84 -21 -37 -15 -38 -17 -38 -63 l0 -48 48 -15 c26 -9 63 -18
83 -21 33 -6 37 -10 41 -42 4 -33 2 -36 -41 -55 -25 -11 -60 -31 -79 -45 -29
-23 -32 -30 -26 -57 11 -54 19 -58 113 -56 85 2 85 2 97 -27 11 -27 9 -31 -47
-85 -63 -61 -68 -73 -43 -121 15 -29 17 -30 62 -23 26 4 66 15 88 25 l42 18
22 -30 22 -30 -20 -27 c-26 -36 -62 -107 -62 -124 0 -19 43 -57 64 -57 21 0
71 25 113 57 l33 24 29 -22 28 -21 -17 -46 c-9 -26 -20 -66 -24 -89 -5 -38 -4
-42 26 -61 18 -12 39 -17 49 -14 21 9 78 60 105 95 18 25 20 25 52 12 27 -12
32 -19 27 -36 -8 -26 -8 -113 0 -139 3 -10 22 -24 41 -30 45 -15 63 -1 105 85
30 61 30 62 66 56 33 -6 37 -10 40 -41 2 -19 11 -56 19 -82 l16 -48 48 0 c46
0 48 1 63 38 8 21 18 59 22 85 6 41 10 47 31 47 13 0 27 1 32 2 4 1 21 -23 37
-55 17 -31 40 -66 51 -78 20 -19 26 -20 58 -9 41 13 51 43 44 135 -4 54 -3 57
24 71 28 14 29 14 87 -46 32 -33 67 -60 76 -60 9 0 30 8 46 17 27 16 29 20 23
63 -3 25 -14 64 -24 87 -17 39 -17 43 -2 56 33 27 41 27 93 -8 72 -47 104 -53
135 -24 13 12 24 29 24 37 0 19 -46 109 -65 128 -20 20 -19 26 6 58 19 24 22
25 47 12 27 -13 76 -27 119 -32 26 -3 63 37 63 68 0 11 -27 47 -60 79 -58 57
-60 60 -48 86 12 25 16 26 86 24 95 -3 109 2 121 47 13 46 0 61 -86 104 -44
21 -62 36 -58 45 3 8 5 23 5 33 0 14 11 19 48 25 26 4 66 15 90 25 39 18 42
22 42 58 0 38 -2 40 -49 61 -27 11 -62 21 -78 21 -38 0 -49 9 -56 46 -6 30 -4
33 36 48 61 23 117 72 112 97 -13 64 -39 77 -141 66 -52 -5 -55 -4 -69 23 -15
28 -14 29 51 94 l65 65 -16 30 c-8 17 -22 34 -31 39 -18 10 -76 0 -135 -23
-33 -13 -38 -12 -51 3 -28 33 -28 40 6 90 18 28 38 64 44 80 9 27 7 33 -18 57
-26 25 -31 26 -63 16 -20 -7 -54 -25 -76 -42 -23 -16 -44 -29 -47 -29 -3 0
-19 9 -35 21 -23 16 -27 24 -19 34 13 16 40 110 40 140 0 21 -45 55 -72 55
-15 0 -72 -51 -105 -93 -21 -27 -22 -28 -58 -13 -28 12 -35 20 -31 34 9 27 10
114 2 139 -7 22 -26 33 -64 38 -26 4 -60 -36 -91 -106 -19 -42 -22 -45 -54
-41 -33 4 -35 7 -45 57 -6 29 -18 69 -26 89 -14 33 -18 36 -55 36 -34 0 -43
-4 -55 -28z m246 -226 c121 -27 306 -116 363 -176 l26 -27 -63 -67 -63 -67
-54 37 c-209 142 -477 164 -701 58 -41 -19 -88 -45 -105 -58 -49 -37 -53 -37
-77 -14 -66 64 -98 109 -90 124 13 23 117 91 199 130 66 31 189 66 268 77 58
8 231 -2 297 -17z m96 -307 c77 -38 212 -146 212 -171 0 -9 -338 -178 -357
-178 -29 0 -34 30 -50 294 -4 81 -3 110 7 116 17 11 91 -13 188 -61z m-382
-41 c-18 -307 -19 -308 -46 -308 -11 0 -90 34 -176 75 -86 41 -160 75 -164 75
-15 0 -20 33 -8 48 23 29 72 71 124 108 61 42 207 104 248 104 l28 0 -6 -102z
m-479 30 c56 -55 66 -85 36 -109 -26 -22 -98 -139 -121 -199 -35 -91 -45 -171
-39 -300 4 -86 3 -121 -6 -128 -14 -10 -126 -42 -150 -42 -43 0 -57 251 -22
422 11 58 55 170 89 231 46 84 122 177 144 177 9 0 40 -23 69 -52z m1285 -13
c156 -193 222 -495 163 -742 -4 -16 -13 -23 -28 -23 -26 0 -133 33 -144 44 -4
4 -8 82 -8 174 -1 99 -5 177 -12 192 -6 14 -19 45 -29 70 -21 53 -93 169 -117
189 -9 7 -17 23 -17 34 0 29 99 129 125 125 10 -2 41 -30 67 -63z m-86 -415
c26 -130 3 -350 -38 -358 -25 -5 -328 206 -328 228 0 18 40 49 254 194 84 57
88 55 112 -64z m-1043 -7 c104 -70 157 -112 157 -124 0 -27 -319 -242 -336
-228 -23 19 -35 81 -40 199 -3 104 11 217 32 251 11 18 33 7 187 -98z m501 83
c222 -93 157 -430 -84 -429 -66 0 -114 19 -156 62 -121 120 -75 316 86 371 54
18 103 17 154 -4z m-200 -434 c5 -9 13 -82 21 -207 3 -49 8 -110 10 -135 7
-66 0 -72 -65 -55 -93 24 -210 89 -284 157 -59 54 -67 66 -55 77 21 19 331
169 351 170 9 1 19 -2 22 -7z m439 -71 c91 -44 168 -84 172 -91 9 -15 -43 -70
-121 -126 -69 -50 -181 -100 -244 -110 l-43 -7 7 119 c16 277 19 294 45 294
11 0 94 -36 184 -79z m-961 2 c33 -73 67 -122 128 -187 126 -134 289 -210 469
-219 288 -14 542 137 675 401 14 28 33 52 41 52 30 0 140 -41 152 -57 10 -13
5 -29 -24 -87 -93 -186 -236 -327 -417 -415 -138 -67 -227 -86 -396 -85 -127
1 -156 4 -233 27 -211 65 -385 192 -503 369 -52 77 -96 172 -89 190 6 14 117
56 152 57 18 1 28 -10 45 -46z"/>
<path d="M998 1983 c-27 -7 -22 -23 7 -23 21 0 25 -5 27 -32 0 -18 2 -37 3
-43 2 -5 3 -16 4 -22 0 -7 7 -13 15 -13 12 0 14 12 9 60 -5 56 -4 60 16 60 12
0 21 5 21 10 0 10 -69 12 -102 3z"/>
<path d="M1151 1924 c-17 -36 -31 -68 -31 -70 0 -10 23 -3 37 11 17 18 51 11
70 -14 22 -30 24 -3 5 66 -25 91 -41 93 -81 7z m59 -11 c0 -7 -9 -13 -20 -13
-23 0 -24 3 -8 30 13 20 28 10 28 -17z"/>
<path d="M1303 1900 c-20 -66 -20 -70 -3 -70 11 0 20 10 24 26 6 21 9 24 21
14 8 -7 15 -23 15 -35 0 -13 7 -26 16 -29 12 -5 15 0 13 22 -2 15 4 38 13 50
19 29 12 61 -16 71 -65 25 -61 27 -83 -49z m84 6 c-2 -6 -13 -12 -25 -14 -18
-3 -22 2 -22 22 0 24 2 25 25 14 14 -6 24 -16 22 -22z"/>
<path d="M849 1942 c-46 -38 -17 -122 43 -122 64 0 95 81 46 123 -26 22 -60
22 -89 -1z m74 -16 c41 -32 -1 -96 -49 -74 -35 16 -31 67 6 81 22 8 23 8 43
-7z"/>
<path d="M1467 1883 c3 -21 7 -40 9 -42 2 -2 -4 -17 -12 -33 -14 -27 -12 -48
4 -48 4 0 13 13 20 29 7 17 28 35 53 46 26 12 36 22 30 28 -7 7 -19 6 -37 -2
-31 -14 -28 -15 -41 23 -14 46 -33 45 -26 -1z"/>
<path d="M692 1880 l-33 -20 33 -60 c18 -33 36 -60 40 -60 14 0 19 20 8 39
-15 28 5 37 37 16 17 -11 28 -14 35 -7 7 7 3 14 -11 21 -12 7 -21 22 -21 35 0
22 -27 56 -46 56 -5 0 -24 -9 -42 -20z m54 -22 c4 -6 -1 -17 -12 -25 -15 -11
-19 -11 -27 3 -14 25 24 46 39 22z"/>
<path d="M1040 1304 c-135 -59 -164 -237 -54 -333 46 -41 73 -51 135 -51 119
0 201 89 195 213 -7 136 -150 225 -276 171z m114 -39 c-4 -9 3 -18 18 -24 26
-10 77 -65 79 -84 0 -7 2 -21 4 -31 2 -10 -3 -36 -12 -58 -41 -103 -180 -113
-237 -16 -34 56 -8 154 49 180 14 6 25 19 25 30 0 14 8 18 40 18 31 0 38 -3
34 -15z"/>
<path d="M1792 818 c-16 -16 -15 -43 3 -58 9 -7 15 -8 15 -2 0 5 8 9 17 8 12
-1 19 7 21 23 5 35 -31 54 -56 29z m44 -9 c4 -7 0 -9 -14 -5 -17 6 -20 3 -17
-13 2 -12 0 -21 -6 -21 -7 0 -7 23 0 48 2 7 31 0 37 -9z m4 -29 c0 -5 -2 -10
-4 -10 -3 0 -8 5 -11 10 -3 6 -1 10 4 10 6 0 11 -4 11 -10z"/>
<path d="M420 730 c-25 -16 -49 -31 -55 -34 -6 -2 -6 -8 1 -15 8 -9 25 -4 67
21 31 18 57 39 57 46 0 19 -21 13 -70 -18z"/>
<path d="M1745 739 c-4 -6 -5 -12 -4 -13 13 -11 121 -68 123 -65 2 2 13 23 25
47 16 31 18 42 8 42 -8 0 -19 -11 -25 -25 -14 -31 -20 -31 -76 0 -29 16 -47
21 -51 14z"/>
<path d="M453 674 c-29 -19 -53 -39 -53 -43 0 -19 15 -19 40 -1 16 11 30 20
33 20 3 0 -1 -21 -10 -46 -23 -69 -6 -76 56 -24 28 24 51 46 51 50 0 20 -17
17 -43 -7 l-30 -28 7 25 c14 52 18 90 10 90 -5 0 -33 -16 -61 -36z"/>
<path d="M1684 656 c-7 -18 71 -142 80 -128 3 6 4 16 1 24 -7 17 30 62 43 54
6 -3 15 0 21 7 8 10 -4 18 -58 35 -80 26 -80 26 -87 8z m79 -33 c4 -3 2 -12
-4 -20 -11 -13 -14 -13 -26 3 -23 31 -10 38 30 17z"/>
<path d="M580 591 c0 -5 7 -14 15 -21 14 -12 11 -19 -26 -56 -36 -36 -40 -44
-26 -50 12 -4 24 2 38 20 41 52 48 57 69 44 37 -23 33 3 -6 37 -38 34 -64 44
-64 26z"/>
<path d="M1626 592 c-3 -6 -1 -16 6 -24 43 -45 42 -47 -8 -32 -68 20 -74 6
-23 -60 27 -37 46 -53 52 -47 6 6 2 20 -12 39 -11 17 -21 32 -21 35 0 3 21 -1
46 -10 34 -11 48 -13 57 -4 9 9 -1 24 -40 62 -28 29 -53 47 -57 41z"/>
<path d="M668 453 l-37 -57 41 -28 c39 -25 58 -28 58 -9 0 5 -13 14 -30 21
-33 14 -36 20 -18 38 8 8 17 8 30 1 30 -16 36 0 9 20 -29 22 -14 35 24 21 58
-22 61 -5 5 28 -21 12 -40 22 -42 22 -2 0 -20 -26 -40 -57z"/>
<path d="M1468 474 c-52 -28 -45 -100 12 -124 28 -12 34 -11 58 7 72 53 8 159
-70 117z m70 -31 c25 -49 -29 -98 -66 -61 -29 29 -7 78 35 78 12 0 26 -8 31
-17z"/>
<path d="M801 396 c-27 -67 -28 -78 -14 -83 7 -2 15 7 19 22 4 17 12 25 23 22
9 -2 15 -8 14 -15 -4 -17 15 -62 26 -62 4 0 7 14 6 32 -2 22 3 37 18 49 30 23
12 61 -36 76 l-36 11 -20 -52z m76 -9 c-2 -7 -13 -10 -23 -9 -25 5 -28 8 -20
27 5 13 10 14 26 5 12 -6 19 -17 17 -23z"/>
<path d="M1352 419 c3 -8 13 -38 23 -66 11 -29 25 -53 32 -53 17 0 16 13 -6
75 -11 31 -24 51 -36 54 -12 2 -16 -2 -13 -10z"/>
<path d="M955 398 c-14 -36 -33 -124 -29 -130 11 -17 23 -7 30 25 4 17 7 36 6
40 -6 23 17 -7 33 -43 22 -50 46 -50 51 0 2 19 6 50 9 68 5 25 2 32 -10 32
-13 0 -21 -31 -16 -62 0 -5 -3 -8 -8 -8 -5 0 -16 18 -24 39 -18 44 -35 59 -42
39z"/>
<path d="M1243 398 c-47 -10 -58 -28 -19 -28 26 0 30 -8 42 -72 4 -24 12 -38
21 -38 11 0 14 7 10 23 -20 80 -19 95 2 102 12 3 21 11 21 16 0 11 -20 10 -77
-3z"/>
<path d="M1101 325 c-25 -78 -25 -75 -6 -75 8 0 15 5 15 10 0 6 16 10 35 10
19 0 35 -4 35 -10 0 -5 7 -10 15 -10 19 0 20 -3 -15 74 -16 36 -35 66 -43 66
-9 0 -23 -26 -36 -65z m53 -1 c9 -23 8 -24 -13 -24 -14 0 -18 5 -14 20 6 24
19 26 27 4z"/>
</g>
</svg>
